<svg width="64" height="63" viewBox="0 0 64 63" fill="none" xmlns="http://www.w3.org/2000/svg">
<g clip-path="url(#clip0)">
<path d="M0.75 0.5H63.25V63H0.75V0.5Z" fill="#F7DF1E"/>
<path d="M17.1836 52.7296L21.9663 49.8351C22.8892 51.4711 23.7285 52.8553 25.7419 52.8553C27.6719 52.8553 28.8889 52.1005 28.8889 49.1639V29.1937H34.7622V49.247C34.7622 55.3302 31.1963 58.0992 25.9937 58.0992C21.2952 58.0992 18.5679 55.6659 17.1833 52.7291L17.1836 52.7296ZM37.9524 52.1002L42.7346 49.3314C43.9937 51.3873 45.6299 52.8976 48.5244 52.8976C50.9583 52.8976 52.51 51.6808 52.51 50.0026C52.51 47.9889 50.9158 47.2755 48.2307 46.1012L46.7627 45.4713C42.5251 43.6678 39.7144 41.4022 39.7144 36.6195C39.7144 32.2142 43.0706 28.8578 48.3149 28.8578C52.0488 28.8578 54.7339 30.1586 56.6636 33.5568L52.0903 36.4938C51.0833 34.6898 49.9929 33.9767 48.3147 33.9767C46.5945 33.9767 45.5037 35.0675 45.5037 36.4938C45.5037 38.2557 46.5945 38.9694 49.1116 40.0602L50.5798 40.6893C55.5725 42.8292 58.3833 45.0106 58.3833 49.9188C58.3833 55.2054 54.23 58.1 48.6501 58.1C43.1963 58.1 39.6721 55.4989 37.9522 52.1005" fill="black"/>
</g>
<defs>
<clipPath id="clip0">
<rect width="62.5" height="62.5" fill="white" transform="translate(0.75 0.5)"/>
</clipPath>
</defs>
</svg>
