<svg width="70" height="63" viewBox="0 0 70 63" fill="none" xmlns="http://www.w3.org/2000/svg">
<g clip-path="url(#clip0)">
<path d="M62.9896 0.28125H7.00795C5.66698 0.28125 4.66092 1.31283 4.77923 2.53176L9.89248 54.6225C10.0109 55.8405 11.1698 57.1153 12.4695 57.4445L32.6266 62.5347C33.9247 62.8617 36.0463 62.8638 37.3462 62.5389L57.5283 57.4559C58.8284 57.1277 59.9872 55.8644 60.1055 54.6443L65.2209 2.53176C65.3393 1.31283 64.3374 0.28125 62.9896 0.28125ZM53.2809 19.0845C53.28 19.0925 53.2731 19.0987 53.2645 19.1001C53.2558 19.1014 53.2473 19.0973 53.2435 19.0898L37.451 24.9732C37.226 25.057 37.0978 25.2739 37.1445 25.4907C37.1916 25.7075 37.4007 25.8639 37.6439 25.8639H49.9279C50.5814 25.8639 51.2039 26.1162 51.6409 26.558C52.0778 26.9998 52.2878 27.5894 52.2184 28.18L50.2991 44.5484C50.2049 45.3515 49.6113 46.0337 48.7732 46.3018L35.7346 50.4724C35.2436 50.6296 34.7083 50.6308 34.216 50.4757L21.2384 46.389C20.3952 46.1234 19.7966 45.4392 19.7018 44.6326L18.8318 37.2197C18.786 36.8305 18.9244 36.442 19.2121 36.151C19.5 35.86 19.9101 35.6937 20.3407 35.6937H23.952C24.728 35.6937 25.3789 36.2258 25.4609 36.9271L25.9948 41.4837L34.9805 44.3232L44.0074 41.4578L45.1115 32.0077H19.5886C18.815 32.0077 18.1651 31.4786 18.0803 30.7795L17.5943 26.7743C17.5201 26.1634 17.8993 25.5817 18.5241 25.3476L34.859 19.2251C35.0443 19.1557 35.1497 18.9771 35.1108 18.7984C35.0718 18.6198 34.8996 18.4911 34.6994 18.4911H17.501C16.9832 18.4911 16.549 18.1357 16.4949 17.6678L15.9975 13.3629C15.9675 13.1038 16.06 12.8453 16.2518 12.6515C16.4435 12.458 16.7168 12.3473 17.0034 12.3473H52.9893C53.2775 12.3473 53.552 12.4591 53.7439 12.6545C53.9358 12.8499 54.027 13.1104 53.9944 13.3707L53.2809 19.0845Z" fill="#0170BF"/>
</g>
<defs>
<clipPath id="clip0">
<rect width="68.75" height="62.5" fill="white" transform="translate(0.625 0.28125)"/>
</clipPath>
</defs>
</svg>
