<svg width="65" height="65" viewBox="0 0 65 65" fill="none" xmlns="http://www.w3.org/2000/svg">
<g clip-path="url(#clip0)">
<path d="M40.2789 62.9224L40.8931 52.6872L42.5892 49.7919C42.5892 49.7919 38.7289 51.3711 32.2662 51.3711C25.8034 51.3711 22.0016 49.8211 22.0016 49.8211L23.9024 52.9794L24.5749 62.9224C24.5749 63.9884 28.0903 64.8525 32.4269 64.8525C36.7634 64.8525 40.2789 63.9884 40.2789 62.9224ZM38.3413 15.1251L39.6306 10.029L46.7704 2.51626L44.8886 0.913452L37.3296 8.9164L35.8327 15.0049C34.706 14.9672 33.5788 14.9484 32.4515 14.9487C24.4905 14.9487 18.0369 15.856 18.0369 16.9749C18.0369 18.094 24.4905 19.0012 32.4515 19.0012C40.4123 19.0012 46.8659 18.094 46.8659 16.9749C46.8659 16.1509 43.3658 15.4417 38.3413 15.1251Z" fill="#DA4648"/>
<path d="M37.5913 17.979C37.5913 17.979 37.3121 18.0416 36.4907 18.0451C35.6691 18.0485 35.0858 18.0398 34.8534 17.8282C34.7909 17.7713 34.7567 17.6585 34.7571 17.5821C34.7578 17.4366 34.861 17.351 34.9925 17.2973L35.1169 17.4924C35.0628 17.5111 35.0319 17.5332 35.0318 17.5567C35.0313 17.6672 35.8718 17.7428 36.5147 17.7347C37.1577 17.7267 37.9346 17.6738 37.9353 17.5649C37.9353 17.5319 37.8766 17.5009 37.7744 17.4765L37.8982 17.2827C38.0648 17.3344 38.2102 17.4344 38.2099 17.6073C38.2083 17.9014 37.8341 17.9461 37.5913 17.979Z" fill="#DA4648"/>
<path d="M46.7564 2.53107C46.9359 2.32372 46.6635 1.79333 46.148 1.34659C45.6322 0.900082 45.0685 0.706083 44.8887 0.913437C44.709 1.12079 44.9816 1.65117 45.4974 2.09769C46.0129 2.54431 46.5768 2.73854 46.7564 2.53107ZM39.9356 37.9217C39.7664 36.2937 43.4966 33.9358 42.5393 33.8603C40.4784 33.9782 39.4527 36.2755 38.4159 38.6816C38.0359 39.5634 36.7357 43.3236 35.883 42.8607C35.0305 42.398 36.9883 39.3059 37.537 37.4696C36.9038 37.9339 34.5818 39.7379 33.9834 38.0484C33.0214 38.8655 30.9656 39.3081 31.1975 37.1618C30.6857 38.0684 29.537 39.3342 28.1582 38.8082C26.3474 38.1177 29.2074 32.3497 29.9185 32.6407C30.6298 32.9316 29.775 34.2455 29.5511 34.7558C29.0588 35.8787 28.49 37.2903 28.87 37.5793C29.5209 38.0743 31.2922 35.7064 31.3316 35.6543C31.6629 35.2166 32.6068 32.3532 33.3675 32.682C34.1282 33.0108 31.4701 36.7915 32.4639 37.5418C32.6644 37.6932 33.4845 37.4484 33.9834 36.9086C34.3062 36.5595 34.1952 35.7861 35.2712 33.2199C36.3473 30.6539 37.3063 27.4583 38.0443 27.7017C38.7822 27.9451 38.174 29.5853 37.9092 30.1967C36.6669 33.0664 34.5187 37.8073 35.5318 37.4484C36.5449 37.0896 37.0725 37.0686 38.0645 35.9076C39.0566 34.7467 39.0109 32.8344 39.6721 32.8751C40.3335 32.9158 40.2225 33.5289 40.0621 33.9958C40.7129 33.2511 43.1471 31.6826 43.7347 33.236C44.4308 35.0752 40.2522 37.7317 41.294 37.5962C42.3099 37.4641 43.9556 36.4218 44.6582 35.4741L46.5923 18.086C46.5923 18.086 44.6461 19.6966 32.2644 19.6966C19.8826 19.6966 18.1377 18.1195 18.1377 18.1195L19.7843 33.9907C20.6583 31.5067 22.7338 26.4822 26.0053 26.6508C27.4934 26.7276 29.48 29.5931 27.7783 29.6902C27.058 29.7311 26.9849 28.2599 26.1319 28.0438C25.5164 27.8878 24.6595 28.3882 24.1057 28.9304C23.0012 30.0113 20.6258 34.276 20.9397 36.4021C21.3396 39.1128 24.6802 35.4602 25.2455 34.3758C25.6435 33.6119 25.9125 31.3487 26.7831 31.5861C27.6538 31.8236 26.7071 34.1593 26.076 36.2243C25.367 38.5431 24.9943 40.9892 24.1057 40.7078C23.217 40.4266 24.6646 37.4331 24.6122 36.9086C23.7769 37.6793 22.238 39.6304 20.2693 38.6647L21.2919 48.5206C21.2919 48.5206 24.0098 50.668 32.1973 50.668C40.3847 50.668 43.2032 48.5541 43.2032 48.5541L44.473 37.1386C43.4341 38.1503 40.1461 39.9467 39.9356 37.9217Z" fill="#DA4648"/>
</g>
<defs>
<clipPath id="clip0">
<rect width="64.0625" height="64.0625" fill="white" transform="translate(0.40625 0.8125)"/>
</clipPath>
</defs>
</svg>
