<svg width="64" height="63" viewBox="0 0 64 63" fill="none" xmlns="http://www.w3.org/2000/svg">
<g clip-path="url(#clip0)">
<path d="M31.8792 1.01074C14.6892 1.01074 0.75 14.9475 0.75 32.1399C0.75 45.8938 9.66943 57.5623 22.0381 61.6785C23.5938 61.9666 24.165 61.0032 24.165 60.1809C24.165 59.4387 24.136 56.9863 24.1228 54.3853C15.4624 56.2683 13.635 50.7124 13.635 50.7124C12.219 47.1143 10.1787 46.1577 10.1787 46.1577C7.35449 44.2256 10.3916 44.2651 10.3916 44.2651C13.5176 44.4849 15.1636 47.4731 15.1636 47.4731C17.9399 52.2322 22.4458 50.8562 24.2222 50.061C24.5015 48.0488 25.3084 46.6758 26.1985 45.8984C19.2844 45.1111 12.0159 42.4419 12.0159 30.5142C12.0159 27.1157 13.2319 24.3386 15.2234 22.1587C14.9001 21.3745 13.8347 18.2085 15.5249 13.9207C15.5249 13.9207 18.1389 13.084 24.0876 17.1116C26.5706 16.4216 29.2336 16.0759 31.8792 16.0642C34.5247 16.0759 37.1897 16.4216 39.6775 17.1116C45.6191 13.084 48.2295 13.9207 48.2295 13.9207C49.9238 18.2085 48.8579 21.3745 48.5347 22.1587C50.5305 24.3386 51.7383 27.1155 51.7383 30.5142C51.7383 42.4702 44.4561 45.103 37.5244 45.8735C38.6409 46.8396 39.6357 48.7341 39.6357 51.6382C39.6357 55.8032 39.5996 59.1555 39.5996 60.1809C39.5996 61.0093 40.1599 61.98 41.738 61.6743C54.0999 57.5535 63.0081 45.8892 63.0081 32.1399C63.0081 14.9475 49.0708 1.01074 31.8792 1.01074Z" fill="#0D1117"/>
<path d="M12.4089 45.3549C12.3406 45.5094 12.0969 45.5558 11.8755 45.4499C11.6497 45.3483 11.5227 45.1374 11.596 44.9821C11.6631 44.8229 11.9068 44.7785 12.1321 44.8854C12.3584 44.9867 12.4873 45.1996 12.4089 45.3549ZM13.9402 46.7211C13.7918 46.8588 13.5015 46.7948 13.3045 46.5773C13.1008 46.3603 13.0628 46.0702 13.2134 45.9303C13.3665 45.7929 13.648 45.8571 13.8521 46.0744C14.0557 46.2939 14.0952 46.5822 13.94 46.7214L13.9402 46.7211ZM14.9907 48.4692C14.7998 48.6017 14.4878 48.4775 14.2952 48.2006C14.1045 47.924 14.1045 47.592 14.2993 47.4589C14.4927 47.3258 14.7998 47.4455 14.9951 47.7201C15.1856 48.0016 15.1856 48.3337 14.9905 48.4694L14.9907 48.4692ZM16.7671 50.4938C16.5964 50.6818 16.2332 50.6315 15.9671 50.3747C15.6951 50.1237 15.6192 49.7675 15.7903 49.5793C15.9629 49.3908 16.3284 49.4438 16.5964 49.6984C16.8667 49.9489 16.9492 50.3078 16.7673 50.4938H16.7671ZM19.063 51.1774C18.988 51.4211 18.638 51.5319 18.2854 51.4284C17.9334 51.3217 17.7029 51.036 17.7739 50.7897C17.8472 50.5443 18.1987 50.4289 18.554 50.5397C18.9055 50.6459 19.1365 50.9294 19.0632 51.1774H19.063ZM21.6763 51.4672C21.6851 51.724 21.386 51.9369 21.0159 51.9416C20.6436 51.9496 20.3425 51.7419 20.3386 51.4894C20.3386 51.2301 20.6309 51.0192 21.0029 51.0131C21.3731 51.0058 21.6763 51.2121 21.6763 51.4672ZM24.2432 51.3688C24.2876 51.6193 24.0303 51.8766 23.6629 51.945C23.3015 52.0109 22.9671 51.8564 22.9209 51.6081C22.876 51.3512 23.1382 51.0942 23.4988 51.0275C23.867 50.9635 24.1963 51.1142 24.2432 51.3688Z" fill="#0D1117"/>
</g>
<defs>
<clipPath id="clip0">
<rect width="62.5" height="62.5" fill="white" transform="translate(0.75 0.15625)"/>
</clipPath>
</defs>
</svg>
