<svg width="64" height="63" viewBox="0 0 64 63" fill="none" xmlns="http://www.w3.org/2000/svg">
<g clip-path="url(#clip0)">
<path d="M21.5834 63C27.3334 63 32.0001 58.3333 32.0001 52.5833V42.1666H21.5834C15.8334 42.1666 11.1667 46.8333 11.1667 52.5833C11.1667 58.3333 15.8334 63 21.5834 63Z" fill="#0ACF83"/>
<path d="M11.1667 31.75C11.1667 26 15.8334 21.3334 21.5834 21.3334H32.0001V42.1667H21.5834C15.8334 42.1667 11.1667 37.5 11.1667 31.75Z" fill="#A259FF"/>
<path d="M11.1667 10.9167C11.1667 5.16667 15.8334 0.5 21.5834 0.5H32.0001V21.3333H21.5834C15.8334 21.3333 11.1667 16.6667 11.1667 10.9167Z" fill="#F24E1E"/>
<path d="M32 0.5H42.4167C48.1667 0.5 52.8333 5.16667 52.8333 10.9167C52.8333 16.6667 48.1667 21.3333 42.4167 21.3333H32V0.5Z" fill="#FF7262"/>
<path d="M52.8333 31.75C52.8333 37.5 48.1667 42.1667 42.4167 42.1667C36.6667 42.1667 32 37.5 32 31.75C32 26 36.6667 21.3334 42.4167 21.3334C48.1667 21.3334 52.8333 26 52.8333 31.75Z" fill="#1ABCFE"/>
</g>
<defs>
<clipPath id="clip0">
<rect width="62.5" height="62.5" fill="white" transform="translate(0.75 0.5)"/>
</clipPath>
</defs>
</svg>
