<svg width="63" height="63" viewBox="0 0 63 63" fill="none" xmlns="http://www.w3.org/2000/svg">
<g clip-path="url(#clip0)">
<path d="M31.6562 0.5C48.9141 0.5 62.9062 14.4922 62.9062 31.7501C62.9062 49.0079 48.9141 63.0001 31.6562 63.0001C14.3984 63.0001 0.40625 49.0079 0.40625 31.7501C0.40625 14.4922 14.3984 0.5 31.6562 0.5ZM25.4453 42.1616C25.901 43.8412 25.8516 45.4116 25.3828 46.8282L25.2135 47.297C25.151 47.4558 25.0781 47.6095 25.0104 47.7553C24.6458 48.5105 24.1615 49.2137 23.5651 49.8647C21.7474 51.8413 19.2109 52.5913 18.1224 51.9611C16.9505 51.2788 17.5339 48.4845 19.6432 46.2579C21.9115 43.8673 25.1641 42.3282 25.1641 42.3282V42.3204L25.4453 42.1616ZM51.2552 13.8776C49.8438 8.32294 40.638 6.49741 31.9271 9.59377C26.7474 11.4349 21.1354 14.3282 17.1016 18.1016C12.3021 22.5834 11.5391 26.4896 11.8542 28.1225C12.9661 33.8803 20.8568 37.6459 24.1016 40.4402V40.4558C23.1458 40.9246 16.1432 44.4376 14.5026 48.073C12.7448 51.9012 14.776 54.6381 16.1042 54.9871C20.2057 56.1225 24.4245 54.0496 26.6901 50.6928C28.8776 47.409 28.6849 43.1902 27.7422 41.1199C29.0339 40.7683 30.5547 40.6121 32.5078 40.8491C37.9792 41.4741 39.0729 44.9116 38.8359 46.3178C38.6016 47.7215 37.474 48.5418 37.0807 48.7762C36.6901 49.0131 36.5729 49.0887 36.6094 49.2475C36.6484 49.4819 36.8464 49.4819 37.1563 49.4428C37.5859 49.3647 40.0104 48.2709 40.1276 45.6121C40.2448 42.2527 37.0391 38.5053 31.3385 38.5808C28.9948 38.6225 27.5078 38.8178 26.4557 39.2475C26.3776 39.1303 26.2969 39.0522 26.1823 38.974C22.6667 35.185 16.1432 32.5287 16.4167 27.4896C16.4948 25.6537 17.1589 20.8125 28.9167 14.9532C38.5651 10.1459 46.263 11.4766 47.5911 14.4063C49.5 18.5834 43.487 26.3594 33.4479 27.4896C29.6198 27.9193 27.6276 26.4376 27.1172 25.8881C26.5729 25.3021 26.4948 25.2631 26.2995 25.3829C25.987 25.5391 26.1823 26.0469 26.2995 26.3594C26.612 27.1407 27.8229 28.5079 29.9349 29.211C31.7682 29.7969 36.263 30.1459 41.6536 28.0391C47.7057 25.698 52.4323 19.1719 51.0651 13.7032L51.2552 13.8776Z" fill="#CD6799"/>
</g>
<defs>
<clipPath id="clip0">
<rect width="62.5" height="62.5001" fill="white" transform="translate(0.40625 0.5)"/>
</clipPath>
</defs>
</svg>
