<svg width="39" height="39" viewBox="0 0 39 39" fill="none" xmlns="http://www.w3.org/2000/svg">
<path d="M34.0389 13.4956C34.021 12.2655 33.7935 11.0451 33.358 9.89462C32.5959 7.92999 31.044 6.37649 29.0794 5.61599C27.9435 5.18862 26.7426 4.95949 25.5271 4.93349C23.9639 4.86362 23.4682 4.84412 19.5 4.84412C15.5317 4.84412 15.0231 4.84412 13.4712 4.93349C12.2574 4.95949 11.0565 5.18862 9.92062 5.61599C7.95599 6.37649 6.40249 7.92999 5.64199 9.89462C5.21462 11.0305 4.98387 12.2314 4.96112 13.4452C4.89124 15.0101 4.87012 15.5057 4.87012 19.474C4.87012 23.4422 4.87012 23.9492 4.96112 25.5027C4.98549 26.7182 5.21462 27.9175 5.64199 29.0566C6.40412 31.0196 7.95599 32.5731 9.92224 33.3336C11.0532 33.7756 12.2541 34.0259 13.4729 34.0649C15.0377 34.1347 15.5334 34.1559 19.5016 34.1559C23.4699 34.1559 23.9785 34.1559 25.5304 34.0649C26.7442 34.0405 27.9451 33.8114 29.0826 33.384C31.0472 32.6219 32.5991 31.0684 33.3612 29.1054C33.7886 27.9679 34.0177 26.7686 34.0421 25.5515C34.112 23.9882 34.1331 23.4926 34.1331 19.5227C34.1299 15.5545 34.1299 15.0507 34.0389 13.4956ZM19.4902 26.9782C15.34 26.9782 11.9779 23.6161 11.9779 19.4659C11.9779 15.3156 15.34 11.9535 19.4902 11.9535C23.6372 11.9535 27.0026 15.3156 27.0026 19.4659C27.0026 23.6161 23.6372 26.9782 19.4902 26.9782ZM27.3016 13.4274C26.3315 13.4274 25.5499 12.6441 25.5499 11.6756C25.5499 10.7071 26.3315 9.92387 27.3016 9.92387C28.2685 9.92387 29.0517 10.7071 29.0517 11.6756C29.0517 12.6441 28.2685 13.4274 27.3016 13.4274Z" fill="black"/>
<path d="M19.4902 24.3457C22.1853 24.3457 24.3701 22.161 24.3701 19.4659C24.3701 16.7708 22.1853 14.586 19.4902 14.586C16.7951 14.586 14.6104 16.7708 14.6104 19.4659C14.6104 22.161 16.7951 24.3457 19.4902 24.3457Z" fill="black"/>
</svg>
