<svg width="788" height="407" viewBox="0 0 788 407" fill="none" xmlns="http://www.w3.org/2000/svg">
<g clip-path="url(#clip0)">
<path opacity="0.1" d="M727.582 321.835C726.705 323.671 725.829 325.482 724.957 327.269C723.595 330.045 722.25 332.768 720.923 335.436C720.333 336.619 719.743 337.779 719.168 338.939C712.66 351.843 706.583 363.256 701.422 372.642C696.739 381.147 689.786 388.273 681.29 393.273C672.795 398.274 663.07 400.965 653.135 401.065L538.377 402.277H537.166L527.329 402.38L518.914 402.468L493.109 402.74H492.065L478.928 402.879H478.527L397.557 403.731L325.281 404.465L316.874 404.554L264.659 405.104H264.599L230.735 405.457H230.372L123.294 406.581L91.2618 406.918C84.426 406.993 77.619 406.047 71.0798 404.113C59.7001 400.777 49.4731 394.492 41.4991 385.936C27.7417 371.225 17.715 354.061 10.9801 335.436C10.0064 332.748 9.09836 330.026 8.25586 327.269C-15.059 250.778 13.3638 152.093 64.5189 86.0526C66.663 83.2911 68.8424 80.5982 71.0571 77.9738L71.11 77.9151C86.8425 59.1724 104.482 43.5143 123.272 32.3803C156.568 12.6168 193.458 7.04981 229.744 23.6406C260.444 37.6829 289.109 44.2855 316.897 46.0775C319.704 46.2538 322.512 46.386 325.304 46.4667C389.043 48.413 448.78 26.123 518.929 11.7355C521.721 11.1626 524.521 10.5971 527.344 10.061C577.386 0.395855 632.9 -4.7011 698.918 6.01426C705.776 7.10171 712.544 8.67265 719.168 10.7146C722.078 11.6253 724.883 12.6046 727.582 13.6523C759.093 26.0936 776.278 49.0813 783.581 77.8857C784.272 80.559 784.87 83.2789 785.374 86.0453C798.322 155.332 760.402 253.613 727.582 321.835Z" fill="#6C63FF"/>
<g opacity="0.1">
<path opacity="0.1" d="M123.272 32.3811V406.662L91.2392 407C84.4034 407.075 77.5964 406.129 71.0571 404.195V77.9159H71.1101C86.8426 59.1511 104.482 43.4931 123.272 32.3811Z" fill="#6C63FF"/>
<path opacity="0.1" d="M785.412 86.0534H64.5188C66.6629 83.2919 68.8423 80.599 71.057 77.9746V77.9159H783.618C784.31 80.5745 784.907 83.287 785.412 86.0534Z" fill="#6C63FF"/>
<path opacity="0.1" d="M727.582 13.6605V327.263H724.956C723.594 330.039 722.25 332.761 720.923 335.43C720.333 336.612 719.743 337.772 719.167 338.933V10.6934C722.078 11.6041 724.883 12.5931 727.582 13.6605Z" fill="#6C63FF"/>
<path opacity="0.1" d="M527.344 10.0397V402.41L518.929 402.498V11.7142C521.721 11.1413 524.521 10.5758 527.344 10.0397Z" fill="#6C63FF"/>
<path opacity="0.1" d="M325.304 46.4454V404.539L316.896 404.628V46.0562C319.704 46.2324 322.511 46.3352 325.304 46.4454Z" fill="#6C63FF"/>
<path opacity="0.1" d="M724.957 327.27C723.594 330.046 722.25 332.768 720.923 335.437H10.9801C10.0064 332.749 9.09835 330.027 8.25586 327.27H724.957Z" fill="#6C63FF"/>
</g>
<path d="M174.502 195.234H160.125V237.581H174.502V195.234Z" fill="#3F3D56"/>
<path d="M561.442 193.031H547.064V237.831H561.442V193.031Z" fill="#3F3D56"/>
<path d="M653.135 391.93V401.477L538.173 402.505L536.947 402.527L493.253 402.917L492.209 402.931L478.928 403.042H478.535L397.579 403.769L264.69 404.966H264.576L230.788 405.274L230.425 405.282L80.2893 406.618V395.602L115.591 375.038L186.421 374.465L187.934 374.457L188.434 374.45L189.947 374.428L223.955 374.156L225.476 374.149L225.96 374.142L227.474 374.134L238.378 374.046L238.666 374.039L265.568 373.819H265.787L475.704 372.1L480.843 372.063H481.357L485.277 372.026L513.768 371.799L515.281 371.777L516.681 371.762H517.408L526.269 371.696L528.025 371.674L530.378 371.659L537.756 371.593L549.463 371.498L550.977 371.483L553.61 371.468H554.102L610.637 370.998L653.135 391.93Z" fill="#65617D"/>
<path opacity="0.2" d="M653.135 391.93V401.477L538.173 402.505L536.947 402.527L493.253 402.917L492.209 402.931L478.928 403.042H478.535L397.579 403.769L264.69 404.966H264.576L230.788 405.274L230.425 405.282L80.2893 406.618V395.602L115.591 375.038L186.421 374.465L187.934 374.457L188.434 374.45L189.947 374.428L223.955 374.156L225.476 374.149L225.96 374.142L227.474 374.134L238.378 374.046L238.666 374.039L265.568 373.819H265.787L475.704 372.1L480.843 372.063H481.357L485.277 372.026L513.768 371.799L515.281 371.777L516.681 371.762H517.408L526.269 371.696L528.025 371.674L530.378 371.659L537.756 371.593L549.463 371.498L550.977 371.483L553.61 371.468H554.102L610.637 370.998L653.135 391.93Z" fill="black"/>
<path d="M224.068 355.215V373.202C224.069 374.053 223.82 374.888 223.351 375.608C222.882 376.328 222.213 376.905 221.42 377.27C220.829 377.548 220.184 377.699 219.528 377.711L193.118 378.254C192.413 378.271 191.713 378.128 191.075 377.836C190.268 377.477 189.584 376.9 189.105 376.175C188.626 375.45 188.372 374.606 188.373 373.745V355.215H224.068Z" fill="#3F3D56"/>
<path opacity="0.1" d="M224.068 355.215V373.202C224.069 374.053 223.82 374.888 223.351 375.608C222.882 376.328 222.213 376.905 221.42 377.27C220.829 377.548 220.184 377.699 219.528 377.711L193.118 378.254C192.413 378.271 191.713 378.128 191.075 377.836C190.268 377.477 189.584 376.9 189.105 376.175C188.626 375.45 188.372 374.606 188.373 373.745V355.215H224.068Z" fill="black"/>
<path d="M225.582 355.215V373.202C225.582 374.053 225.334 374.888 224.865 375.608C224.396 376.328 223.726 376.905 222.933 377.27C222.343 377.548 221.697 377.699 221.041 377.711L194.631 378.254C193.926 378.271 193.227 378.128 192.588 377.836C191.781 377.477 191.098 376.9 190.619 376.175C190.14 375.45 189.886 374.606 189.887 373.745V355.215H225.582Z" fill="#3F3D56"/>
<path d="M550.977 355.215H515.281V378.35H550.977V355.215Z" fill="#3F3D56"/>
<path opacity="0.1" d="M550.977 355.215H515.281V378.35H550.977V355.215Z" fill="black"/>
<path d="M549.463 355.215H513.768V378.35H549.463V355.215Z" fill="#3F3D56"/>
<path opacity="0.1" d="M174.502 195.227V199.435L160.125 199.075V195.227H174.502Z" fill="black"/>
<path d="M269.139 76.6746L251.863 197.121C251.754 197.891 251.356 198.594 250.746 199.097C250.136 199.599 249.356 199.866 248.556 199.846L110.226 196.365L107.6 196.299C107.143 196.288 106.693 196.184 106.28 195.994C105.867 195.803 105.5 195.53 105.203 195.193C104.906 194.855 104.685 194.461 104.556 194.035C104.426 193.609 104.391 193.162 104.452 192.722L123.847 66.6349C123.972 65.8539 124.394 65.1467 125.03 64.6532C125.666 64.1596 126.47 63.9154 127.282 63.9689L266.112 73.0905C266.56 73.1157 266.998 73.2308 267.398 73.4284C267.798 73.626 268.151 73.9019 268.435 74.2386C268.72 74.5754 268.929 74.9657 269.05 75.385C269.171 75.8043 269.202 76.2434 269.139 76.6746Z" fill="#65617D"/>
<path d="M133.132 72.8263L118.504 183.968L245.635 187.882L261.269 80.6553L133.132 72.8263Z" fill="white"/>
<path d="M441.886 71.1077H295.072C292.845 71.1077 291.039 72.8603 291.039 75.0222V194.492C291.039 196.654 292.845 198.407 295.072 198.407H441.886C444.114 198.407 445.919 196.654 445.919 194.492V75.0222C445.919 72.8603 444.114 71.1077 441.886 71.1077Z" fill="#65617D"/>
<path d="M439.101 79.6785H298.349V185.679H439.101V79.6785Z" fill="white"/>
<path opacity="0.1" d="M561.442 193.023V195.807L547.064 196.093V193.023H561.442Z" fill="black"/>
<path d="M626.317 190.673C626.337 190.977 626.294 191.283 626.19 191.57C626.086 191.858 625.923 192.122 625.711 192.347C625.499 192.572 625.242 192.753 624.956 192.88C624.67 193.006 624.361 193.075 624.046 193.082L482.386 195.924C481.798 195.936 481.227 195.731 480.787 195.351C480.348 194.971 480.073 194.444 480.018 193.875L467.842 71.0195C467.812 70.7147 467.846 70.4072 467.942 70.1155C468.038 69.8238 468.194 69.5541 468.401 69.3227C468.607 69.0913 468.86 68.903 469.144 68.7692C469.428 68.6354 469.736 68.559 470.052 68.5445L610.637 61.7583L612.151 61.6849C612.752 61.6541 613.343 61.8514 613.797 62.2351C614.252 62.6187 614.535 63.1588 614.587 63.7413L626.317 190.673Z" fill="#65617D"/>
<path d="M475.931 75.764L604.326 69.6388L615.17 181.272L487.789 184.21L475.931 75.764Z" fill="white"/>
<path opacity="0.1" d="M626.317 190.673C626.337 190.977 626.294 191.283 626.19 191.57C626.086 191.858 625.923 192.122 625.711 192.347C625.499 192.572 625.242 192.753 624.956 192.88C624.67 193.006 624.361 193.075 624.046 193.082L610.637 61.7583L612.151 61.6849C612.752 61.6541 613.343 61.8514 613.797 62.2351C614.252 62.6187 614.535 63.1588 614.587 63.7413L626.317 190.673Z" fill="black"/>
<path opacity="0.1" d="M127.305 63.9616L110.226 196.365L107.6 196.299C107.143 196.288 106.693 196.184 106.28 195.994C105.867 195.803 105.5 195.53 105.203 195.193C104.906 194.855 104.685 194.461 104.556 194.035C104.426 193.61 104.391 193.162 104.452 192.722L123.847 66.6349C123.97 65.8485 124.395 65.1363 125.036 64.6407C125.677 64.1451 126.488 63.9026 127.305 63.9616Z" fill="black"/>
<path opacity="0.1" d="M174.502 225.037H160.125V237.581H174.502V225.037Z" fill="black"/>
<path opacity="0.1" d="M225.582 355.208V358.858L189.887 359.784V355.208H225.582Z" fill="black"/>
<path d="M288.58 229.407V352.939C288.571 353.693 288.263 354.414 287.721 354.954C287.178 355.494 286.443 355.811 285.666 355.84L140.639 359.585H140.601C139.811 359.576 139.057 359.267 138.498 358.725C137.94 358.183 137.622 357.451 137.612 356.684V229.407C137.622 228.641 137.94 227.908 138.498 227.366C139.057 226.824 139.811 226.516 140.601 226.506H285.591C286.38 226.516 287.135 226.824 287.693 227.366C288.252 227.908 288.57 228.641 288.58 229.407Z" fill="#65617D"/>
<path opacity="0.1" d="M140.639 226.506V359.585H140.601C139.811 359.576 139.057 359.267 138.498 358.725C137.94 358.183 137.622 357.451 137.612 356.684V229.407C137.622 228.641 137.94 227.908 138.498 227.366C139.057 226.824 139.811 226.516 140.601 226.506H140.639Z" fill="black"/>
<path d="M147.26 234.394H281.58V343.273L147.26 346.211V234.394Z" fill="#D4DFEC"/>
<path opacity="0.1" d="M561.442 225.037H547.064V237.831H561.442V225.037Z" fill="black"/>
<path opacity="0.1" d="M549.463 355.208V359.916L513.768 358.99V355.208H549.463Z" fill="black"/>
<path d="M596.57 229.407V356.684C596.56 357.457 596.236 358.195 595.67 358.738C595.103 359.281 594.339 359.585 593.543 359.585L448.485 355.84C447.708 355.811 446.973 355.494 446.43 354.954C445.888 354.414 445.58 353.693 445.571 352.939V229.407C445.581 228.641 445.899 227.908 446.458 227.366C447.016 226.824 447.771 226.516 448.56 226.506H593.55C594.345 226.508 595.108 226.813 595.672 227.356C596.237 227.899 596.56 228.636 596.57 229.407Z" fill="#65617D"/>
<path opacity="0.1" d="M596.569 229.407V356.684C596.559 357.457 596.236 358.195 595.67 358.738C595.103 359.281 594.339 359.585 593.542 359.585V226.506C594.339 226.506 595.103 226.811 595.67 227.354C596.236 227.897 596.559 228.634 596.569 229.407Z" fill="black"/>
<path d="M586.921 234.394H452.601V343.273L586.921 346.211V234.394Z" fill="#D4DFEC"/>
<path d="M441.818 229.407V352.939C441.809 353.693 441.501 354.414 440.959 354.954C440.416 355.494 439.681 355.811 438.904 355.84L293.877 359.585C293.081 359.585 292.316 359.281 291.75 358.738C291.183 358.195 290.86 357.457 290.85 356.684V229.407C290.86 228.641 291.178 227.908 291.736 227.366C292.295 226.824 293.049 226.516 293.839 226.506H438.829C439.618 226.516 440.373 226.824 440.932 227.366C441.49 227.908 441.808 228.641 441.818 229.407Z" fill="#65617D"/>
<path d="M300.498 234.394H434.818V343.273L300.498 346.211V234.394Z" fill="#D4DFEC"/>
<path opacity="0.1" d="M653.135 391.929V401.477L538.173 402.505L536.947 402.527L493.253 402.917L492.209 402.931L478.928 403.041H478.535L397.579 403.769L264.69 404.966H264.576L230.788 405.274L230.425 405.281L80.2893 406.618V395.602L233.535 394.625H233.898L264.917 394.419H265.061L479.276 393.046H479.496L479.624 393.038H479.98L483.605 393.016H484.71L541.079 392.649L544.408 392.634L545.15 392.627L653.135 391.929Z" fill="black"/>
<path d="M368.725 237.581C390.178 237.581 407.568 220.703 407.568 199.883C407.568 179.063 390.178 162.185 368.725 162.185C347.273 162.185 329.882 179.063 329.882 199.883C329.882 220.703 347.273 237.581 368.725 237.581Z" fill="#FBBEBE"/>
<path d="M407.576 276.998C407.576 276.998 332.281 285.811 339.47 276.998C342.073 273.811 342.792 264.366 342.648 253.607C342.603 250.338 342.482 246.953 342.308 243.582C341.475 227.424 339.47 211.634 339.47 211.634C339.47 211.634 405.306 181.522 397.738 205.391C394.711 215.034 395.703 228.577 398.003 241.29C398.677 244.999 399.456 248.634 400.273 252.086C402.268 260.506 404.705 268.821 407.576 276.998Z" fill="#FBBEBE"/>
<path opacity="0.1" d="M407.576 276.998C407.576 276.998 332.281 285.811 339.47 276.998C342.073 273.811 342.792 264.366 342.648 253.607C354.128 248.847 368.733 252.395 368.733 252.395C384.11 249.42 393.97 250 400.273 252.086C402.268 260.506 404.705 268.821 407.576 276.998Z" fill="black"/>
<path d="M264.659 405.795V405.179L397.557 403.776L478.527 403.041H478.754L478.671 404.128L478.784 403.041H478.928V402.916L479.965 393.038L480.358 389.3L480.479 388.132L480.585 387.156L485.262 372.019L489.938 356.904L493.873 344.177L499.882 324.729C499.882 324.729 496.477 317.017 494.585 314.814C492.693 312.611 490.801 297.555 490.801 297.555C490.801 297.555 474.652 282.624 467.592 280.905C464.633 280.171 458.791 279.194 452.586 277.968C450.263 277.512 447.879 277.028 445.586 276.499C444.292 276.212 443.021 275.911 441.803 275.61C439.431 275.035 437.095 274.334 434.803 273.51C433.601 273.086 432.458 272.521 431.398 271.828C425.836 267.869 411.897 267.421 411.359 267.421C411.358 267.404 411.358 267.387 411.359 267.37V267.304C411.379 266.996 411.379 266.686 411.359 266.378C411.359 266.085 411.359 265.739 411.291 265.35C411.291 265.233 411.291 265.108 411.238 264.983C411.201 264.719 411.155 264.439 411.087 264.146C411.064 264.014 411.034 263.884 410.996 263.756C410.777 262.871 410.46 262.012 410.05 261.193C409.997 261.076 409.929 260.951 409.869 260.833C409.498 260.155 409.067 259.509 408.582 258.902C408.484 258.777 408.378 258.645 408.264 258.52C407.644 257.81 406.955 257.161 406.206 256.581C406.002 256.427 405.79 256.265 405.57 256.118C405.448 256.022 405.319 255.934 405.184 255.854L404.511 255.428L403.883 255.075C403.33 254.782 402.748 254.495 402.112 254.223C401.915 254.135 401.704 254.055 401.492 253.974C401.28 253.893 400.947 253.768 400.667 253.665H400.621L400.054 253.445C399.622 253.305 399.184 253.181 398.722 253.056L398.018 252.879L397.261 252.711L396.505 252.556C395.748 252.409 394.938 252.277 394.091 252.174L393.228 252.072L392.343 251.983L391.427 251.91L390.126 251.837L388.612 251.785C381.937 251.785 375.281 252.471 368.755 253.834C364.222 252.855 359.579 252.441 354.937 252.6H354.279L353.522 252.644H353.038L352.062 252.733C351.737 252.733 351.404 252.799 351.078 252.843C350.753 252.887 350.412 252.924 350.087 252.975L349.587 253.056C349.095 253.136 348.596 253.225 348.074 253.327C347.907 253.357 347.741 253.394 347.574 253.438C346.916 253.577 346.258 253.746 345.607 253.937C345.282 254.025 344.956 254.128 344.631 254.238C344.464 254.282 344.305 254.341 344.146 254.4L343.662 254.569L343.185 254.752L342.618 254.973C342.33 255.09 342.05 255.215 341.77 255.347C341.611 255.413 341.452 255.487 341.301 255.567C341.15 255.648 340.991 255.714 340.847 255.795C339.136 256.653 337.555 257.736 336.148 259.012L335.762 259.372L335.384 259.746C335.255 259.871 335.134 260.003 335.013 260.136C334.52 260.659 334.06 261.211 333.635 261.788C333.514 261.942 333.401 262.097 333.287 262.258C332.807 262.946 332.372 263.662 331.986 264.403C331.887 264.579 331.797 264.763 331.706 264.939C331.088 266.18 330.582 267.47 330.192 268.795C330.051 269.284 329.922 269.774 329.806 270.263C329.806 270.263 313.786 277.123 300.498 282.088C296.964 283.41 293.635 284.607 290.85 285.51C290.04 285.775 289.283 286.017 288.58 286.245C287.053 286.78 285.465 287.135 283.85 287.302C283.089 287.314 282.33 287.383 281.58 287.508C275.473 288.47 265.007 292.649 263.865 296.843C263.772 297.177 263.746 297.526 263.789 297.871C263.789 297.871 263.789 297.922 263.789 297.952C264.546 303.093 259.249 302.358 259.249 302.358C259.249 302.358 257.357 315.945 254.708 319.617C252.794 322.261 251.485 328.159 251.318 332.609C251.223 333.996 251.335 335.389 251.651 336.744C251.651 336.781 251.651 336.818 251.651 336.847C251.954 337.831 251.227 340.519 249.994 343.964C248.655 347.746 246.702 352.446 244.825 356.882C241.995 363.58 239.332 369.661 239.165 370.998C239.097 371.593 238.9 372.658 238.628 374.031C237.523 379.628 235.071 390.284 233.86 394.595C232.96 397.812 231.651 402.219 230.75 405.245C230.75 405.333 230.697 405.421 230.675 405.502L264.599 405.179V405.795H264.705H264.659Z" fill="#6C63FF"/>
<path opacity="0.1" d="M277.04 319.228C277.04 319.228 320.173 340.894 335.686 338.323L277.04 319.228Z" fill="black"/>
<path opacity="0.1" d="M364.821 310.415C364.821 310.415 406.819 323.635 420.819 325.471C434.818 327.307 364.821 310.415 364.821 310.415Z" fill="black"/>
<path d="M382.692 126.274C382.241 126.123 381.787 125.983 381.328 125.854C381.404 125.553 381.475 125.25 381.539 124.946C382.572 120.055 381.897 116.115 379.591 114.817C377.381 113.573 373.767 114.871 370.116 117.971C369.756 118.277 369.405 118.592 369.061 118.916C368.831 118.701 368.597 118.49 368.359 118.283C364.533 114.968 360.698 113.57 358.396 114.871C356.188 116.119 355.534 119.824 356.463 124.459C356.556 124.918 356.66 125.375 356.776 125.829C356.234 125.979 355.71 126.139 355.208 126.31C350.723 127.836 347.858 130.228 347.858 132.71C347.858 135.272 350.933 137.843 355.605 139.401C355.984 139.527 356.366 139.644 356.751 139.751C356.626 140.24 356.515 140.732 356.418 141.227C355.532 145.782 356.224 149.399 358.426 150.639C360.701 151.919 364.518 150.603 368.236 147.431C368.529 147.181 368.824 146.915 369.12 146.636C369.492 146.986 369.874 147.326 370.265 147.656C373.866 150.68 377.422 151.901 379.622 150.658C381.895 149.374 382.633 145.489 381.674 140.762C381.601 140.401 381.516 140.032 381.42 139.656C381.688 139.579 381.951 139.499 382.208 139.416C387.065 137.846 390.225 135.307 390.225 132.71C390.225 130.219 387.268 127.811 382.692 126.274Z" fill="#53C1DE"/>
<path d="M381.639 137.74C381.407 137.815 381.169 137.887 380.927 137.957C380.391 136.3 379.667 134.538 378.782 132.718C379.627 130.941 380.322 129.202 380.844 127.556C381.277 127.679 381.698 127.808 382.103 127.944C386.024 129.261 388.415 131.209 388.415 132.71C388.415 134.308 385.832 136.383 381.639 137.74H381.639ZM379.899 141.105C380.322 143.195 380.383 145.085 380.102 146.562C379.85 147.89 379.342 148.775 378.715 149.129C377.38 149.884 374.524 148.903 371.445 146.317C371.092 146.021 370.737 145.704 370.38 145.369C371.574 144.095 372.767 142.613 373.931 140.968C375.979 140.791 377.914 140.5 379.669 140.105C379.755 140.445 379.832 140.779 379.899 141.105ZM362.302 148.999C360.997 149.449 359.958 149.462 359.33 149.108C357.994 148.356 357.438 145.452 358.196 141.557C358.286 141.096 358.389 140.638 358.506 140.184C360.241 140.558 362.162 140.828 364.215 140.99C365.387 142.6 366.615 144.08 367.852 145.376C367.589 145.624 367.32 145.866 367.044 146.101C365.401 147.504 363.753 148.499 362.302 148.999H362.302ZM356.19 137.73C354.125 137.041 352.419 136.145 351.249 135.168C350.198 134.289 349.668 133.417 349.668 132.71C349.668 131.204 351.968 129.283 355.804 127.978C356.285 127.815 356.772 127.666 357.262 127.53C357.792 129.213 358.488 130.973 359.327 132.753C358.477 134.559 357.771 136.346 357.236 138.049C356.885 137.951 356.536 137.845 356.19 137.73ZM358.239 124.12C357.443 120.148 357.972 117.152 359.302 116.4C360.72 115.6 363.854 116.741 367.157 119.604C367.368 119.787 367.58 119.979 367.793 120.177C366.562 121.467 365.346 122.936 364.184 124.536C362.191 124.716 360.284 125.006 358.53 125.394C358.422 124.971 358.325 124.547 358.239 124.12V124.12ZM376.514 128.524C376.1 127.826 375.67 127.136 375.226 126.456C376.578 126.623 377.873 126.844 379.089 127.115C378.724 128.257 378.269 129.452 377.733 130.676C377.341 129.951 376.935 129.233 376.514 128.524ZM369.062 121.439C369.896 122.322 370.732 123.308 371.555 124.377C369.887 124.3 368.216 124.3 366.547 124.376C367.371 123.316 368.214 122.332 369.062 121.439ZM361.561 128.536C361.146 129.24 360.747 129.953 360.365 130.675C359.838 129.455 359.387 128.255 359.019 127.097C360.228 126.832 361.517 126.617 362.86 126.453C362.41 127.137 361.977 127.832 361.561 128.536ZM362.899 139.092C361.511 138.941 360.203 138.737 358.994 138.48C359.368 137.301 359.829 136.075 360.367 134.829C360.751 135.552 361.151 136.265 361.569 136.969C361.995 137.687 362.438 138.395 362.899 139.092ZM369.112 144.105C368.254 143.201 367.398 142.202 366.563 141.127C367.374 141.158 368.201 141.174 369.041 141.174C369.905 141.174 370.759 141.155 371.599 141.119C370.774 142.213 369.941 143.214 369.112 144.105ZM377.75 134.766C378.316 136.025 378.794 137.244 379.173 138.403C377.944 138.677 376.618 138.897 375.221 139.061C375.669 138.368 376.102 137.666 376.521 136.957C376.948 136.235 377.357 135.505 377.75 134.766ZM374.954 136.074C374.312 137.162 373.634 138.23 372.921 139.275C371.664 139.363 370.365 139.408 369.041 139.408C367.723 139.408 366.441 139.368 365.205 139.29C364.474 138.247 363.783 137.178 363.135 136.084C362.489 134.996 361.886 133.885 361.327 132.752C361.885 131.619 362.486 130.507 363.129 129.419V129.419C363.773 128.33 364.458 127.265 365.184 126.227C366.444 126.134 367.736 126.085 369.042 126.085C370.353 126.085 371.647 126.134 372.906 126.228C373.625 127.265 374.306 128.326 374.948 129.409C375.593 130.496 376.202 131.602 376.774 132.727C376.208 133.863 375.601 134.98 374.954 136.074H374.954ZM378.687 116.348C380.106 117.146 380.658 120.367 379.766 124.59C379.708 124.865 379.644 125.139 379.576 125.412C377.818 125.016 375.909 124.722 373.911 124.539C372.747 122.921 371.541 121.449 370.33 120.176C370.647 119.878 370.972 119.587 371.304 119.304C374.432 116.647 377.355 115.598 378.687 116.348Z" fill="white"/>
<path d="M369.041 129.017C371.131 129.017 372.825 130.67 372.825 132.71C372.825 134.749 371.131 136.402 369.041 136.402C366.952 136.402 365.258 134.749 365.258 132.71C365.258 130.67 366.952 129.017 369.041 129.017Z" fill="#53C1DE"/>
<path opacity="0.1" d="M411.405 267.877C389.46 271.799 348.142 270.954 330.283 270.359C336.829 247.592 368.748 255.333 368.748 255.333C408.257 247.68 411.284 263.558 411.405 267.877Z" fill="black"/>
<path d="M411.405 266.408C389.46 270.33 348.142 269.485 330.283 268.89C336.829 246.123 368.748 253.864 368.748 253.864C408.257 246.211 411.284 262.089 411.405 266.408Z" fill="#6C63FF"/>
<path d="M527.896 366.783C527.896 366.783 553.746 362.927 554.253 373.943C554.76 384.96 541.071 392.657 541.071 392.657L527.896 366.783Z" fill="#FBBEBE"/>
<path opacity="0.1" d="M398.003 241.29C396.891 241.772 395.755 242.199 394.598 242.568C386.44 245.3 378.215 248.054 369.626 249.053C361.037 250.052 352.024 249.171 344.532 245.014C343.746 244.582 342.988 244.104 342.262 243.582C341.43 227.424 339.425 211.634 339.425 211.634C339.425 211.634 405.26 181.522 397.693 205.391C394.681 215.034 395.703 228.577 398.003 241.29Z" fill="black"/>
<path d="M358.07 140.959C356.99 141.236 355.859 141.264 354.765 141.041C353.672 140.818 352.648 140.35 351.774 139.674L353.348 141.797C352.421 141.901 351.481 141.806 350.595 141.521C349.709 141.236 348.897 140.766 348.218 140.144C348.075 142.044 348.156 143.954 348.46 145.836C345.855 145.958 343.291 145.177 341.226 143.633C341.185 144.295 341.355 144.954 341.712 145.52C342.069 146.086 342.597 146.532 343.223 146.798C340.607 146.495 337.966 147.126 335.794 148.573C333.622 150.02 332.067 152.185 331.418 154.664L335.368 155.016C332.264 155.66 329.478 157.31 327.468 159.695C326.257 161.164 325.334 163.044 325.864 164.836C326.394 166.628 328.951 167.773 330.344 166.496C328.363 168.79 326.924 171.477 326.126 174.368C325.329 177.26 325.193 180.285 325.728 183.233C326.087 184.489 326.205 185.799 326.076 187.096C325.826 188.308 325.039 189.358 324.646 190.541C323.889 192.685 324.608 195.014 325.281 197.151L328.83 208.476C330.117 212.566 331.396 216.665 333.076 220.623C334.265 223.126 335.276 225.705 336.102 228.342C337.056 231.897 337.094 235.789 339.129 238.896C340.524 240.851 342.389 242.447 344.563 243.545C352.047 247.702 361.09 248.583 369.656 247.584C378.222 246.585 386.44 243.831 394.59 241.099C396.401 240.57 398.139 239.83 399.766 238.896C405.404 235.312 406.66 227.982 407.712 221.527C408.885 214.329 410.451 207.146 413.229 200.375C414.878 196.343 417.012 192.252 416.649 187.934C416.187 182.198 411.511 177.549 410.353 171.908C409.965 170.023 409.983 168.08 410.406 166.202C410.765 165.083 410.966 163.922 411.004 162.75C410.875 160.385 408.877 158.564 407.001 157.043C402.929 153.743 398.727 150.625 394.394 147.687C394.174 146.218 396.232 145.586 397.163 144.426C398.48 142.788 397.118 140.188 395.12 139.424C393.122 138.661 390.882 139.16 388.801 139.667C388.937 138.633 388.725 137.584 388.197 136.677C387.669 135.769 386.854 135.051 385.872 134.63C384.89 134.208 383.794 134.105 382.747 134.337C381.7 134.568 380.758 135.121 380.061 135.914C379.508 134.684 378.625 133.621 377.505 132.835C376.384 132.05 375.066 131.571 373.689 131.449C368.672 131.067 368.574 134.79 365.365 136.839C362.157 138.888 359.508 136.186 357.041 134.217C356.588 135.33 356.444 136.539 356.625 137.722C356.806 138.906 357.304 140.022 358.07 140.959Z" fill="#3F3D56"/>
<path d="M547.064 388.816C547.064 388.816 546.391 390.373 545.15 392.627C543.272 396.096 540.987 399.342 538.339 402.3L538.135 402.513H536.909L493.215 402.902H492.171L492.042 402.755L483.567 392.994L480.373 389.315L480.245 389.161L479.972 388.852L479.821 388.676L479.624 388.448L473.411 381.295L475.682 372.115L479.548 356.647L479.647 356.273L480.404 353.335L480.941 351.132L482.742 343.949L488.917 319.235L499.889 324.744L511.46 344.573L517.673 355.223H521.078C521.721 355.223 523.197 356.427 524.68 357.815C525.21 358.307 525.739 358.829 526.193 359.284C527.54 360.635 528.607 361.796 528.607 361.796C528.607 361.796 534.124 361.913 535.607 366.129C535.684 366.333 535.747 366.541 535.796 366.753C536.289 368.41 536.929 370.022 537.711 371.571C538.687 373.635 539.913 375.978 541.154 378.321C543.462 382.617 545.808 386.708 546.671 388.191L546.777 388.375L547.064 388.816Z" fill="#6C63FF"/>
<path opacity="0.1" d="M482.061 355.656L481.985 356.706V356.78L481.857 358.469L480.85 372.063L479.632 388.441L479.284 393.053L478.527 402.924V403.049L397.557 403.783L264.682 405.179V405.796H264.576V405.179V404.973L264.917 394.427L265.567 373.819L266.127 356.346L266.18 354.606C266.214 353.555 266.467 352.522 266.925 351.57C267.383 350.618 268.037 349.766 268.846 349.067C269.654 348.368 270.602 347.836 271.629 347.504C272.657 347.172 273.743 347.047 274.822 347.137C278.394 347.43 283.033 347.79 288.58 348.172L290.85 348.334C322.882 350.493 382.082 353.284 441.818 349.803C443.074 349.737 444.338 349.663 445.602 349.575C454.864 349.009 464.119 348.282 473.283 347.372C474.441 347.254 475.612 347.384 476.713 347.753C477.814 348.122 478.819 348.72 479.656 349.507C480.493 350.293 481.142 351.248 481.557 352.304C481.973 353.36 482.145 354.492 482.061 355.619V355.656Z" fill="black"/>
<path d="M264.659 405.796V405.179L397.557 403.776L478.527 403.041H478.754V402.917L479.511 393.046L479.836 388.639L481.077 372.034L482.053 358.887V358.564C482.098 357.959 482.071 357.35 481.97 356.75C481.974 356.726 481.974 356.701 481.97 356.677C481.762 355.437 481.242 354.267 480.457 353.269C479.623 352.232 478.532 351.418 477.284 350.904C476.037 350.39 474.676 350.193 473.328 350.331C464.164 351.242 454.909 351.969 445.647 352.535C444.383 352.623 443.12 352.696 441.863 352.762C382.127 356.207 322.928 353.416 290.895 351.293L288.625 351.132C283.078 350.75 278.44 350.397 274.868 350.096C272.903 349.935 270.946 350.487 269.375 351.643C267.805 352.8 266.731 354.481 266.362 356.361C266.286 356.759 266.24 357.161 266.226 357.565L265.711 373.84L265.008 394.456L264.675 405.002V405.208V405.825L264.659 405.796Z" fill="#3F3D56"/>
<path opacity="0.1" d="M482.288 360.804L481.357 372.063L479.972 388.845L479.624 393.046L478.868 402.454L478.822 402.924V403.049L478.709 404.136L478.792 403.049H478.572L397.602 403.783L264.682 405.179V404.973L265.053 394.427L265.81 373.818L266.294 360.121C266.318 359.342 266.542 358.581 266.947 357.908C267.351 357.234 267.923 356.67 268.61 356.265C269.466 355.756 270.468 355.524 271.47 355.604C273.059 355.729 275.012 355.876 277.289 356.038C280.99 356.302 285.553 356.611 290.865 356.934C300.703 357.536 313.045 358.182 327.188 358.711C366.538 360.18 419.661 360.672 470.12 356.383C472.39 356.192 474.736 355.979 477.029 355.766C477.936 355.678 478.851 355.846 479.662 356.251C479.892 356.362 480.11 356.495 480.313 356.647C480.972 357.111 481.494 357.734 481.826 358.454C481.904 358.597 481.967 358.747 482.016 358.902C482.243 359.511 482.336 360.159 482.288 360.804Z" fill="black"/>
<path opacity="0.1" d="M225.582 370.859V373.201C225.582 374.053 225.334 374.888 224.865 375.608C224.396 376.328 223.726 376.905 222.933 377.27L192.588 377.836C191.781 377.477 191.098 376.9 190.619 376.175C190.14 375.45 189.886 374.606 189.887 373.745V371.542L225.582 370.859Z" fill="black"/>
<path d="M225.96 378.651L186.421 379.385V373.018L225.96 372.283V378.651Z" fill="#3F3D56"/>
<path opacity="0.1" d="M225.96 378.651L186.421 379.385V373.018L225.96 372.283V378.651Z" fill="black"/>
<path d="M227.474 378.651L187.934 379.385V373.018L227.474 372.283V378.651Z" fill="#3F3D56"/>
<path opacity="0.1" d="M517.68 355.215C517.68 355.215 520.079 363.661 517.68 371.006C515.282 378.35 517.68 355.215 517.68 355.215Z" fill="black"/>
<path opacity="0.1" d="M527.896 363.83C527.896 363.83 528.903 374.553 526.632 376.455C524.362 378.357 527.896 363.83 527.896 363.83Z" fill="black"/>
<path d="M150.582 251.807L227.474 251.073" stroke="#6C63FF" stroke-width="2" stroke-miterlimit="10"/>
<path d="M150.582 260.966L227.474 260.239" stroke="#6C63FF" stroke-width="2" stroke-miterlimit="10"/>
<path d="M150.582 270.131L227.474 269.397" stroke="#6C63FF" stroke-width="2" stroke-miterlimit="10"/>
<path d="M547.903 112.435L544.813 121.544L538.183 114.31L522 117.431L550.705 148.755L564.087 109.314L547.903 112.435Z" fill="#4DBA87"/>
<path d="M548.407 111.971L545.317 121.08L538.687 113.846L530.921 115.344L548.144 134.137L556.173 110.473L548.407 111.971Z" fill="#435466"/>
<g clip-path="url(#clip1)">
<path d="M184.919 134.371L192.62 135.231L189.813 125.883L184.919 134.371ZM191.462 111.826L169.545 116.707L169.611 143.902L186.348 155.43L205.326 147.901L211.685 121.419L191.462 111.828L191.462 111.826ZM200.708 146.562L195.798 146.014L193.899 139.353L182.716 138.103L179.325 144.173L174.41 143.624L190.899 116.643L200.708 146.562Z" fill="#DD0031"/>
</g>
<g opacity="0.1">
<path opacity="0.1" d="M358.381 138.55C357.641 137.618 357.15 136.523 356.95 135.363C356.768 136.497 356.877 137.658 357.268 138.741C357.644 138.708 358.016 138.644 358.381 138.55Z" fill="black"/>
<path opacity="0.1" d="M348.77 143.427C348.628 142.527 348.534 141.62 348.49 140.71C348.49 141.613 348.49 142.524 348.49 143.434L348.77 143.427Z" fill="black"/>
<path opacity="0.1" d="M410.444 167.935C410.486 167.281 410.577 166.63 410.716 165.989C411.074 164.872 411.278 163.713 411.322 162.544C411.305 162.282 411.264 162.021 411.201 161.766C411.072 162.442 410.868 163.117 410.716 163.786C410.414 165.148 410.322 166.546 410.444 167.935Z" fill="black"/>
<path opacity="0.1" d="M394.704 145.241L395.529 145.821C396.224 145.333 396.875 144.788 397.473 144.191C397.758 143.809 397.935 143.36 397.985 142.891C398.036 142.422 397.958 141.949 397.761 141.517C397.686 141.685 397.589 141.843 397.473 141.987C396.543 143.148 394.484 143.787 394.704 145.241Z" fill="black"/>
<path opacity="0.1" d="M332.523 152.306C332.247 152.842 332.027 153.403 331.865 153.981C333.049 153.339 334.324 152.872 335.648 152.593L332.523 152.306Z" fill="black"/>
<path opacity="0.1" d="M342.958 144.316C342.461 144.05 341.986 143.748 341.536 143.412C341.517 143.703 341.54 143.995 341.604 144.279C342.056 144.258 342.509 144.27 342.958 144.316Z" fill="black"/>
<path opacity="0.1" d="M416.944 187.589C416.634 191.151 414.924 194.58 413.539 197.959C410.762 204.73 409.195 211.913 408.022 219.118C406.97 225.573 405.752 232.903 400.077 236.48C398.455 237.42 396.719 238.16 394.908 238.683C386.751 241.422 378.525 244.169 369.936 245.168C361.347 246.167 352.334 245.293 344.843 241.136C342.671 240.036 340.806 238.441 339.409 236.487C337.389 233.38 337.351 229.488 336.382 225.933C335.557 223.294 334.545 220.712 333.356 218.207C331.683 214.256 330.397 210.128 329.118 206.067C327.932 202.292 326.749 198.515 325.569 194.735C325.18 193.598 324.891 192.431 324.706 191.246C324.411 193.126 324.986 195.095 325.569 196.938C326.749 200.723 327.932 204.5 329.118 208.27C330.397 212.361 331.683 216.459 333.356 220.41C334.545 222.916 335.557 225.497 336.382 228.137C337.336 231.691 337.374 235.584 339.409 238.69C340.806 240.644 342.671 242.239 344.843 243.339C352.334 247.496 361.37 248.37 369.936 247.371C378.502 246.372 386.72 243.626 394.908 240.886C396.719 240.363 398.455 239.623 400.077 238.683C405.714 235.106 406.97 227.777 408.022 221.321C409.195 214.116 410.762 206.934 413.539 200.162C415.189 196.137 417.323 192.047 416.959 187.721C416.959 187.677 416.944 187.633 416.944 187.589Z" fill="black"/>
<path opacity="0.1" d="M326.371 184.746C326.371 184.746 326.371 184.695 326.371 184.665C326.507 183.37 326.389 182.062 326.023 180.81C325.872 180.004 325.773 179.189 325.728 178.371C325.641 179.924 325.74 181.482 326.023 183.013C326.144 183.586 326.28 184.166 326.371 184.746Z" fill="black"/>
<path opacity="0.1" d="M328.679 166.782C329.261 165.833 329.921 164.932 330.654 164.087C329.269 165.372 326.711 164.226 326.174 162.441C325.976 163.163 325.976 163.923 326.174 164.645C326.36 165.184 326.69 165.665 327.13 166.04C327.57 166.416 328.104 166.672 328.679 166.782Z" fill="black"/>
</g>
</g>
<defs>
<clipPath id="clip0">
<rect width="788" height="407" fill="white"/>
</clipPath>
<clipPath id="clip1">
<rect width="44.9862" height="43.935" fill="white" transform="matrix(0.993817 0.111032 -0.116482 0.993193 169.118 109.314)"/>
</clipPath>
</defs>
</svg>
