<svg width="64" height="64" viewBox="0 0 64 64" fill="none" xmlns="http://www.w3.org/2000/svg">
<g clip-path="url(#clip0)">
<path d="M62.0677 29.4014L34.7787 2.11499C33.2057 0.544678 30.6589 0.544678 29.0807 2.11499L23.4271 7.77905L30.6146 14.9666C32.2943 14.4067 34.2057 14.7843 35.5339 16.115C36.8776 17.4561 37.2474 19.391 36.6745 21.0629L43.5964 27.99C45.276 27.4093 47.2083 27.7869 48.5443 29.1228C50.4219 30.9978 50.4219 34.0291 48.5443 35.9041C46.6719 37.7765 43.6458 37.7765 41.7734 35.9041C40.3698 34.4952 40.0182 32.4223 40.7214 30.7061L34.2396 24.2582V41.2504C34.6979 41.4744 35.1302 41.7791 35.5104 42.1567C37.3672 44.0343 37.3672 47.0603 35.5104 48.9275C33.638 50.8051 30.5912 50.8051 28.7162 48.9275C26.8438 47.0551 26.8438 44.0343 28.7162 42.1619C29.1901 41.6931 29.724 41.3389 30.2917 41.1046V23.9457C29.7266 23.7087 29.1875 23.3676 28.7292 22.9014C27.3099 21.4822 26.9688 19.4067 27.6979 17.6697L20.6354 10.5733L1.92188 29.2738C0.359375 30.8494 0.359375 33.3988 1.92188 34.9744L29.2135 62.2582C30.7865 63.8311 33.3333 63.8311 34.9063 62.2582L62.0677 35.0968C63.6432 33.5264 63.6432 30.977 62.0677 29.4014Z" fill="#F05133"/>
</g>
<defs>
<clipPath id="clip0">
<rect width="62.5" height="62.5" fill="white" transform="translate(0.75 0.9375)"/>
</clipPath>
</defs>
</svg>
