<svg width="56" height="63" viewBox="0 0 56 63" fill="none" xmlns="http://www.w3.org/2000/svg">
<path d="M1.26807 0.5C0.69365 0.5 0.265652 0.968104 0.316619 1.54023L5.15932 55.8593C5.21029 56.4314 5.70471 57.0252 6.25845 57.179L26.8084 62.8848C27.3619 63.0385 28.2676 63.0385 28.8214 62.8852L49.4338 57.17C49.9873 57.0165 50.4823 56.4226 50.5333 55.8507L55.3839 1.54023C55.4353 0.968104 55.0069 0.5 54.4325 0.5H1.26807ZM45.0709 12.9579C45.0251 13.4682 44.9459 14.3541 44.895 14.9262L44.7673 16.3514C44.716 16.9233 44.6429 17.7413 44.6042 18.1689C44.5658 18.5967 44.5292 18.9465 44.5225 18.9465C44.5161 18.9465 44.0407 18.9465 43.4662 18.9465H28.8947C28.3203 18.9465 27.8455 18.9465 27.8392 18.9465C27.8329 18.9465 27.3577 18.9465 26.7833 18.9465H19.109C18.5346 18.9465 18.1066 19.4146 18.1576 19.9868L18.6052 24.9905C18.6562 25.5625 19.1681 26.0308 19.7426 26.0308H26.7835C27.3579 26.0308 27.8332 26.0308 27.8394 26.0308C27.8457 26.0308 28.3205 26.0308 28.8949 26.0308H40.9973C41.5717 26.0308 42.4607 26.0308 42.9726 26.0308C43.4842 26.0308 43.8652 26.4483 43.8188 26.9586C43.7722 27.4689 43.6927 28.355 43.6417 28.9269L42.2023 45.0584C42.1509 45.6305 42.0859 46.3614 42.058 46.6827C42.0293 47.0037 41.5533 47.392 40.9998 47.5456L28.8569 50.9125C28.3033 51.0658 27.8434 51.1928 27.8348 51.1947C27.8263 51.1966 27.3665 51.0723 26.8128 50.9188L14.6569 47.5458C14.1034 47.3923 13.6088 46.7984 13.5578 46.2263L12.7753 37.4438C12.7244 36.8717 13.1528 36.4036 13.7272 36.4036H14.8366C15.411 36.4036 16.351 36.4036 16.9254 36.4036H18.5797C19.1541 36.4036 19.6657 36.8717 19.7171 37.4438L20.0239 40.8818C20.0749 41.454 20.5701 42.0445 21.1249 42.1942L26.8109 43.7297C27.3653 43.8795 27.821 44.0021 27.8235 44.0021C27.8261 44.0021 28.2816 43.8793 28.8362 43.7295L34.5324 42.1903C35.0868 42.0405 35.5824 41.4498 35.6338 40.8779L36.2515 33.9898C36.3029 33.4177 35.8749 32.9495 35.3004 32.9495H28.8949C28.3205 32.9495 27.8457 32.9495 27.8394 32.9495C27.8332 32.9495 27.3579 32.9495 26.7835 32.9495H13.4174C12.843 32.9495 12.3315 32.4812 12.2805 31.9093L10.7649 14.926C10.7139 14.3539 10.6347 13.4682 10.589 12.9577C10.5436 12.4474 10.9762 12.0298 11.5507 12.0298H26.7835C27.3579 12.0298 27.8332 12.0298 27.8394 12.0298C27.8457 12.0298 28.3205 12.0298 28.8949 12.0298H44.1094C44.6836 12.0298 45.1164 12.4474 45.0709 12.9579Z" fill="#F16524"/>
</svg>
