<svg width="64" height="63" viewBox="0 0 64 63" fill="none" xmlns="http://www.w3.org/2000/svg">
<path d="M52.6146 0.5H10.9479C5.20052 0.515625 0.546875 5.16927 0.53125 10.9167V52.5834C0.53125 58.3125 5.21875 63 10.9479 63H52.6146C58.3438 63 63.0312 58.3125 63.0312 52.5834V10.9167C63.0312 5.1875 58.3438 0.5 52.6146 0.5ZM46.9193 44.3933C46.3984 45.6485 45.5729 46.7552 44.5156 47.6068C43.4219 48.4922 42.0365 49.2214 40.3307 49.7422C38.6276 50.2709 36.6016 50.5365 34.2552 50.5365H17.5052V14.0781H35.2188C38.4948 14.0781 41.1198 14.8151 43.0833 16.3177C45.0625 17.8281 46.0469 20.0781 46.0469 23.1146C46.0469 24.9505 45.599 26.5261 44.6979 27.8281C43.8021 29.1224 42.5104 30.1354 40.8438 30.8386V30.9584C43.0677 31.4271 44.7891 32.4818 45.9219 34.1224C47.0547 35.7631 47.6354 37.836 47.6354 40.3386C47.6354 41.7396 47.3646 43.0729 46.8542 44.3177L46.9193 44.3881V44.3933ZM39.6901 35.4089C38.6224 34.4323 37.1224 33.9558 35.1849 33.9558H23.9297V45.3308H35.2161C37.1432 45.3308 38.6536 44.8308 39.7214 43.8203C40.7891 42.8177 41.3359 41.3881 41.3359 39.5495C41.3177 37.7526 40.7891 36.362 39.7214 35.4089H39.6771H39.6901ZM38.1276 28.0573C39.1589 27.1823 39.6641 25.9297 39.6641 24.2969C39.6641 22.4636 39.2083 21.1615 38.2839 20.4167C37.3672 19.6745 36.0443 19.2891 34.3047 19.2891H23.888V29.349H34.3047C35.8229 29.349 37.1172 28.9063 38.1172 28.0573H38.1276Z" fill="#563D7C"/>
</svg>
