<svg width="25" height="25" viewBox="0 0 25 25" fill="none" xmlns="http://www.w3.org/2000/svg">
<g clip-path="url(#clip0)">
<path d="M5.81948 8.04276H0.800687C0.577945 8.04276 0.397461 8.22332 0.397461 8.44598V24.5692C0.397461 24.7919 0.577945 24.9724 0.800687 24.9724H5.81948C6.04222 24.9724 6.2227 24.7919 6.2227 24.5692V8.44598C6.2227 8.22332 6.04222 8.04276 5.81948 8.04276Z" fill="black"/>
<path d="M3.31177 0.0274963C1.48565 0.0274963 0 1.51153 0 3.33564C0 5.16056 1.48565 6.64516 3.31177 6.64516C5.13645 6.64516 6.62089 5.16048 6.62089 3.33564C6.62097 1.51153 5.13645 0.0274963 3.31177 0.0274963Z" fill="black"/>
<path d="M18.5849 7.64203C16.5692 7.64203 15.0791 8.50856 14.1753 9.49316V8.44598C14.1753 8.22332 13.9948 8.04275 13.7721 8.04275H8.96573C8.74298 8.04275 8.5625 8.22332 8.5625 8.44598V24.5692C8.5625 24.7919 8.74298 24.9724 8.96573 24.9724H13.9735C14.1963 24.9724 14.3768 24.7919 14.3768 24.5692V16.5919C14.3768 13.9038 15.1069 12.8565 16.9808 12.8565C19.0216 12.8565 19.1838 14.5354 19.1838 16.7303V24.5693C19.1838 24.792 19.3643 24.9725 19.587 24.9725H24.5967C24.8194 24.9725 24.9999 24.792 24.9999 24.5693V15.7254C24.9999 11.7282 24.2377 7.64203 18.5849 7.64203Z" fill="black"/>
</g>
<defs>
<clipPath id="clip0">
<rect width="25" height="25" fill="white"/>
</clipPath>
</defs>
</svg>
