<svg width="28" height="28" viewBox="0 0 28 28" fill="none" xmlns="http://www.w3.org/2000/svg">
<path d="M25.1233 6.97807C25.1419 7.28505 25.1419 7.59028 25.1419 7.8955C25.1419 17.2364 19.3672 28 8.81376 28C5.56239 28 2.54183 26.8405 0 24.8267C0.461632 24.8916 0.906167 24.9144 1.38632 24.9144C4.0692 24.9144 6.53837 23.7988 8.5117 21.8955C5.9884 21.8306 3.87401 19.7958 3.14451 16.9961C3.49929 17.061 3.85549 17.1049 4.22878 17.1049C4.74313 17.1049 5.26033 17.0172 5.74048 16.8646C3.10889 16.2085 1.13841 13.365 1.13841 9.93033V9.84263C1.90352 10.3671 2.79117 10.6951 3.73153 10.739C2.18563 9.4725 1.1726 7.3061 1.1726 4.85553C1.1726 3.54342 1.45614 2.34006 1.95339 1.29107C4.77875 5.57649 9.02605 8.3779 13.7877 8.68488C13.6994 8.15863 13.6452 7.61308 13.6452 7.06578C13.6452 3.17153 16.2042 0 19.3843 0C21.037 0 22.5288 0.852524 23.5774 2.2313C24.874 1.92432 26.1164 1.33317 27.2192 0.524495C26.7932 2.16464 25.8856 3.54342 24.6959 4.41874C25.8514 4.26438 26.9713 3.87144 28 3.32414C27.2192 4.72397 26.2432 5.97118 25.1233 6.97807Z" fill="black"/>
</svg>
